<svg id="original-svg" width="120" height="120" viewBox="0 0 32 32" xmlns="http://www.w3.org/2000/svg">
                        <!-- Ventana del navegador -->
                        <rect x="2" y="4" width="28" height="20" rx="2" ry="2" fill="#2563eb" stroke="#1d4ed8" stroke-width="0.5"/>
                        
                        <!-- Barra superior -->
                        <rect x="2" y="4" width="28" height="6" rx="2" ry="2" fill="#3b82f6"/>
                        
                        <!-- Botones de la ventana -->
                        <circle cx="6" cy="7" r="1.2" fill="white" opacity="0.9"/>
                        <circle cx="9.5" cy="7" r="1.2" fill="white" opacity="0.9"/>
                        <circle cx="13" cy="7" r="1.2" fill="white" opacity="0.9"/>
                        
                        <!-- Ãrea de contenido -->
                        <rect x="3" y="11" width="26" height="12" fill="white" opacity="0.95"/>
                        
                        <!-- Engranaje -->
                        <g transform="translate(16,17)">
                            <!-- Dientes del engranaje -->
                            <path d="M-4,-1.5 L-4,-3 L-2,-3 L-2,-4.5 L2,-4.5 L2,-3 L4,-3 L4,-1.5 L4.5,-1.5 L4.5,1.5 L4,1.5 L4,3 L2,3 L2,4.5 L-2,4.5 L-2,3 L-4,3 L-4,1.5 L-4.5,1.5 L-4.5,-1.5 Z" fill="#1e40af"/>
                            
                            <!-- Centro del engranaje -->
                            <circle cx="0" cy="0" r="2" fill="white"/>
                            <circle cx="0" cy="0" r="1" fill="#1e40af"/>
                        </g>
                    </svg>